<svg xmlns="http://www.w3.org/2000/svg" viewBox="0 0 826.18 1365.81"><defs><style>.cls-1{fill:#fff;}</style></defs><g id="Camada_3" data-name="Camada 3"><path class="cls-1" d="M1413.5,478.15V1517.38A228.36,228.36,0,0,0,1237.31,1665c-2.61,5.92-5.1,11.94-7.41,18H587.32a368,368,0,0,0,94.39-61.86v-980A368.87,368.87,0,0,0,835.77,800.35a361.57,361.57,0,0,0,57.39,25,136.58,136.58,0,0,0-57.39,68.44v647h432.56V444.58H1126.12v298a136.06,136.06,0,0,1,72.17,48.09v0c.42.5.83,1,1.22,1.57A135.18,135.18,0,0,1,1223,842c-3.61-.29-7.29-.44-11-.44-3.29,0-6.52.12-9.75.32v0a135.74,135.74,0,0,0-76.17,30.13v573.35a368.69,368.69,0,0,0-191.66-218.65A136.42,136.42,0,0,0,981,1165.62V317.19h260.42A228.42,228.42,0,0,0,1413.5,478.15Z" transform="translate(-587.32 -317.19)"/><polygon class="cls-1" points="204.01 289.37 65.74 151.1 89.44 127.4 94.39 122.45 204.01 12.83 248.45 57.27 318.58 127.4 342.28 151.1 204.01 289.37"/></g></svg>